<mxfile host="app.diagrams.net" agent="Mozilla/5.0 (Windows NT 10.0; Win64; x64) AppleWebKit/537.36 (KHTML, like Gecko) Chrome/137.0.0.0 Safari/537.36" version="27.1.6">
  <diagram name="Page-1" id="yIZt4Iz_Tb2G2kSrJ3za">
    <mxGraphModel dx="1699" dy="439" grid="1" gridSize="10" guides="1" tooltips="1" connect="1" arrows="1" fold="1" page="1" pageScale="1" pageWidth="827" pageHeight="1169" math="0" shadow="0">
      <root>
        <mxCell id="0" />
        <mxCell id="1" parent="0" />
        <mxCell id="Qy7Hj7DoJu94713Pi_-V-17" style="edgeStyle=orthogonalEdgeStyle;rounded=0;orthogonalLoop=1;jettySize=auto;html=1;exitX=1;exitY=0;exitDx=0;exitDy=0;" edge="1" parent="1" source="9bLLDBEkSSRMHpIH5o-v-5">
          <mxGeometry relative="1" as="geometry">
            <mxPoint x="230" y="110" as="targetPoint" />
          </mxGeometry>
        </mxCell>
        <mxCell id="9bLLDBEkSSRMHpIH5o-v-5" value="Uporabnik" style="whiteSpace=wrap;html=1;align=center;" parent="1" vertex="1">
          <mxGeometry x="130" y="110" width="100" height="40" as="geometry" />
        </mxCell>
        <mxCell id="lxFvvVvMqMI0y28YT8ds-2" style="rounded=0;orthogonalLoop=1;jettySize=auto;html=1;entryX=0;entryY=0;entryDx=0;entryDy=0;endArrow=none;startFill=0;" parent="1" source="9bLLDBEkSSRMHpIH5o-v-6" target="9bLLDBEkSSRMHpIH5o-v-5" edge="1">
          <mxGeometry relative="1" as="geometry" />
        </mxCell>
        <mxCell id="9bLLDBEkSSRMHpIH5o-v-6" value="id" style="ellipse;whiteSpace=wrap;html=1;align=center;fontStyle=4;" parent="1" vertex="1">
          <mxGeometry x="-60" y="80" width="100" height="40" as="geometry" />
        </mxCell>
        <mxCell id="lxFvvVvMqMI0y28YT8ds-5" style="rounded=0;orthogonalLoop=1;jettySize=auto;html=1;exitX=0;exitY=0.5;exitDx=0;exitDy=0;endArrow=none;startFill=0;entryX=1;entryY=0;entryDx=0;entryDy=0;" parent="1" source="9bLLDBEkSSRMHpIH5o-v-8" target="9bLLDBEkSSRMHpIH5o-v-5" edge="1">
          <mxGeometry relative="1" as="geometry" />
        </mxCell>
        <mxCell id="9bLLDBEkSSRMHpIH5o-v-8" value="e-mail" style="ellipse;whiteSpace=wrap;html=1;align=center;" parent="1" vertex="1">
          <mxGeometry x="270" y="50" width="100" height="40" as="geometry" />
        </mxCell>
        <mxCell id="lxFvvVvMqMI0y28YT8ds-4" style="rounded=0;orthogonalLoop=1;jettySize=auto;html=1;exitX=0;exitY=0.5;exitDx=0;exitDy=0;endArrow=none;startFill=0;" parent="1" source="9bLLDBEkSSRMHpIH5o-v-9" edge="1">
          <mxGeometry relative="1" as="geometry">
            <mxPoint x="210" y="110" as="targetPoint" />
          </mxGeometry>
        </mxCell>
        <mxCell id="9bLLDBEkSSRMHpIH5o-v-9" value="priimek" style="ellipse;whiteSpace=wrap;html=1;align=center;" parent="1" vertex="1">
          <mxGeometry x="280" y="10" width="100" height="40" as="geometry" />
        </mxCell>
        <mxCell id="9bLLDBEkSSRMHpIH5o-v-10" value="ime" style="ellipse;whiteSpace=wrap;html=1;align=center;" parent="1" vertex="1">
          <mxGeometry x="170" width="100" height="40" as="geometry" />
        </mxCell>
        <mxCell id="lxFvvVvMqMI0y28YT8ds-1" style="rounded=0;orthogonalLoop=1;jettySize=auto;html=1;exitX=1;exitY=0.5;exitDx=0;exitDy=0;entryX=0;entryY=0.5;entryDx=0;entryDy=0;endArrow=none;startFill=0;" parent="1" source="9bLLDBEkSSRMHpIH5o-v-11" target="9bLLDBEkSSRMHpIH5o-v-5" edge="1">
          <mxGeometry relative="1" as="geometry" />
        </mxCell>
        <mxCell id="9bLLDBEkSSRMHpIH5o-v-11" value="telefon" style="ellipse;whiteSpace=wrap;html=1;align=center;" parent="1" vertex="1">
          <mxGeometry x="-40" y="130" width="100" height="40" as="geometry" />
        </mxCell>
        <mxCell id="9bLLDBEkSSRMHpIH5o-v-13" value="Pohod" style="whiteSpace=wrap;html=1;align=center;" parent="1" vertex="1">
          <mxGeometry x="550" y="110" width="100" height="40" as="geometry" />
        </mxCell>
        <mxCell id="lxFvvVvMqMI0y28YT8ds-12" style="rounded=0;orthogonalLoop=1;jettySize=auto;html=1;entryX=0;entryY=0.25;entryDx=0;entryDy=0;endArrow=none;startFill=0;" parent="1" source="9bLLDBEkSSRMHpIH5o-v-14" target="9bLLDBEkSSRMHpIH5o-v-13" edge="1">
          <mxGeometry relative="1" as="geometry" />
        </mxCell>
        <mxCell id="9bLLDBEkSSRMHpIH5o-v-14" value="id" style="ellipse;whiteSpace=wrap;html=1;align=center;fontStyle=4;" parent="1" vertex="1">
          <mxGeometry x="440" y="50" width="100" height="40" as="geometry" />
        </mxCell>
        <mxCell id="lxFvvVvMqMI0y28YT8ds-15" style="rounded=0;orthogonalLoop=1;jettySize=auto;html=1;exitX=0;exitY=0.5;exitDx=0;exitDy=0;endArrow=none;startFill=0;" parent="1" source="9bLLDBEkSSRMHpIH5o-v-15" target="9bLLDBEkSSRMHpIH5o-v-13" edge="1">
          <mxGeometry relative="1" as="geometry" />
        </mxCell>
        <mxCell id="9bLLDBEkSSRMHpIH5o-v-15" value="pot_id" style="ellipse;whiteSpace=wrap;html=1;align=center;" parent="1" vertex="1">
          <mxGeometry x="700" y="100" width="100" height="40" as="geometry" />
        </mxCell>
        <mxCell id="lxFvvVvMqMI0y28YT8ds-14" style="rounded=0;orthogonalLoop=1;jettySize=auto;html=1;exitX=0;exitY=0.5;exitDx=0;exitDy=0;entryX=1;entryY=0;entryDx=0;entryDy=0;endArrow=none;startFill=0;" parent="1" source="9bLLDBEkSSRMHpIH5o-v-16" target="9bLLDBEkSSRMHpIH5o-v-13" edge="1">
          <mxGeometry relative="1" as="geometry" />
        </mxCell>
        <mxCell id="9bLLDBEkSSRMHpIH5o-v-16" value="datum_konca" style="ellipse;whiteSpace=wrap;html=1;align=center;" parent="1" vertex="1">
          <mxGeometry x="680" y="40" width="100" height="40" as="geometry" />
        </mxCell>
        <mxCell id="9bLLDBEkSSRMHpIH5o-v-18" value="datum_zacetka" style="ellipse;whiteSpace=wrap;html=1;align=center;" parent="1" vertex="1">
          <mxGeometry x="550" y="20" width="100" height="40" as="geometry" />
        </mxCell>
        <mxCell id="9bLLDBEkSSRMHpIH5o-v-19" value="Prijava_na_pohod" style="whiteSpace=wrap;html=1;align=center;" parent="1" vertex="1">
          <mxGeometry x="110" y="280" width="100" height="40" as="geometry" />
        </mxCell>
        <mxCell id="lxFvvVvMqMI0y28YT8ds-19" style="rounded=0;orthogonalLoop=1;jettySize=auto;html=1;endArrow=none;startFill=0;" parent="1" source="9bLLDBEkSSRMHpIH5o-v-20" target="9bLLDBEkSSRMHpIH5o-v-19" edge="1">
          <mxGeometry relative="1" as="geometry" />
        </mxCell>
        <mxCell id="9bLLDBEkSSRMHpIH5o-v-20" value="uporabnik_id" style="ellipse;whiteSpace=wrap;html=1;align=center;fontStyle=4;" parent="1" vertex="1">
          <mxGeometry x="-20" y="280" width="100" height="40" as="geometry" />
        </mxCell>
        <mxCell id="lxFvvVvMqMI0y28YT8ds-21" style="rounded=0;orthogonalLoop=1;jettySize=auto;html=1;endArrow=none;startFill=0;" parent="1" source="9bLLDBEkSSRMHpIH5o-v-21" target="9bLLDBEkSSRMHpIH5o-v-19" edge="1">
          <mxGeometry relative="1" as="geometry" />
        </mxCell>
        <mxCell id="9bLLDBEkSSRMHpIH5o-v-21" value="pohod_id" style="ellipse;whiteSpace=wrap;html=1;align=center;" parent="1" vertex="1">
          <mxGeometry x="50" y="330" width="100" height="40" as="geometry" />
        </mxCell>
        <mxCell id="lxFvvVvMqMI0y28YT8ds-22" style="rounded=0;orthogonalLoop=1;jettySize=auto;html=1;exitX=0.5;exitY=0;exitDx=0;exitDy=0;endArrow=none;startFill=0;" parent="1" source="9bLLDBEkSSRMHpIH5o-v-28" target="9bLLDBEkSSRMHpIH5o-v-19" edge="1">
          <mxGeometry relative="1" as="geometry" />
        </mxCell>
        <mxCell id="9bLLDBEkSSRMHpIH5o-v-28" value="cas_prijave" style="ellipse;whiteSpace=wrap;html=1;align=center;" parent="1" vertex="1">
          <mxGeometry x="150" y="330" width="100" height="40" as="geometry" />
        </mxCell>
        <mxCell id="9bLLDBEkSSRMHpIH5o-v-53" value="prijava" style="shape=rhombus;perimeter=rhombusPerimeter;whiteSpace=wrap;html=1;align=center;" parent="1" vertex="1">
          <mxGeometry x="400" y="190" width="120" height="60" as="geometry" />
        </mxCell>
        <mxCell id="9bLLDBEkSSRMHpIH5o-v-54" value="" style="endArrow=none;html=1;rounded=0;dashed=1;dashPattern=1 2;exitX=0;exitY=1;exitDx=0;exitDy=0;entryX=1;entryY=0;entryDx=0;entryDy=0;" parent="1" source="9bLLDBEkSSRMHpIH5o-v-13" target="9bLLDBEkSSRMHpIH5o-v-53" edge="1">
          <mxGeometry relative="1" as="geometry">
            <mxPoint x="414" y="210" as="sourcePoint" />
            <mxPoint x="574" y="210" as="targetPoint" />
          </mxGeometry>
        </mxCell>
        <mxCell id="9bLLDBEkSSRMHpIH5o-v-55" value="N" style="resizable=0;html=1;whiteSpace=wrap;align=right;verticalAlign=bottom;" parent="9bLLDBEkSSRMHpIH5o-v-54" connectable="0" vertex="1">
          <mxGeometry x="1" relative="1" as="geometry" />
        </mxCell>
        <mxCell id="9bLLDBEkSSRMHpIH5o-v-56" value="" style="endArrow=none;html=1;rounded=0;dashed=1;dashPattern=1 2;exitX=1;exitY=0.5;exitDx=0;exitDy=0;entryX=0;entryY=1;entryDx=0;entryDy=0;" parent="1" source="9bLLDBEkSSRMHpIH5o-v-19" target="9bLLDBEkSSRMHpIH5o-v-53" edge="1">
          <mxGeometry relative="1" as="geometry">
            <mxPoint x="330" y="230" as="sourcePoint" />
            <mxPoint x="490" y="230" as="targetPoint" />
          </mxGeometry>
        </mxCell>
        <mxCell id="9bLLDBEkSSRMHpIH5o-v-57" value="N" style="resizable=0;html=1;whiteSpace=wrap;align=right;verticalAlign=bottom;" parent="9bLLDBEkSSRMHpIH5o-v-56" connectable="0" vertex="1">
          <mxGeometry x="1" relative="1" as="geometry" />
        </mxCell>
        <mxCell id="9bLLDBEkSSRMHpIH5o-v-58" value="status udeleÅ¾be" style="ellipse;whiteSpace=wrap;html=1;align=center;" parent="1" vertex="1">
          <mxGeometry x="310" y="170" width="100" height="40" as="geometry" />
        </mxCell>
        <mxCell id="9bLLDBEkSSRMHpIH5o-v-59" value="" style="endArrow=none;html=1;rounded=0;exitX=0.94;exitY=0.725;exitDx=0;exitDy=0;exitPerimeter=0;entryX=0;entryY=0;entryDx=0;entryDy=0;" parent="1" source="9bLLDBEkSSRMHpIH5o-v-58" target="9bLLDBEkSSRMHpIH5o-v-53" edge="1">
          <mxGeometry relative="1" as="geometry">
            <mxPoint x="370" y="139" as="sourcePoint" />
            <mxPoint x="530" y="139" as="targetPoint" />
          </mxGeometry>
        </mxCell>
        <mxCell id="lxFvvVvMqMI0y28YT8ds-38" style="rounded=0;orthogonalLoop=1;jettySize=auto;html=1;endArrow=none;startFill=0;" parent="1" source="9bLLDBEkSSRMHpIH5o-v-61" target="lxFvvVvMqMI0y28YT8ds-42" edge="1">
          <mxGeometry relative="1" as="geometry">
            <mxPoint x="693.4285714285711" y="280.0000000000001" as="targetPoint" />
          </mxGeometry>
        </mxCell>
        <mxCell id="9bLLDBEkSSRMHpIH5o-v-61" value="ocena" style="ellipse;whiteSpace=wrap;html=1;align=center;" parent="1" vertex="1">
          <mxGeometry x="380" y="310" width="100" height="40" as="geometry" />
        </mxCell>
        <mxCell id="lxFvvVvMqMI0y28YT8ds-3" style="rounded=0;orthogonalLoop=1;jettySize=auto;html=1;exitX=0.5;exitY=1;exitDx=0;exitDy=0;entryX=0.558;entryY=-0.012;entryDx=0;entryDy=0;entryPerimeter=0;endArrow=none;startFill=0;" parent="1" source="9bLLDBEkSSRMHpIH5o-v-10" target="9bLLDBEkSSRMHpIH5o-v-5" edge="1">
          <mxGeometry relative="1" as="geometry" />
        </mxCell>
        <mxCell id="lxFvvVvMqMI0y28YT8ds-13" style="rounded=0;orthogonalLoop=1;jettySize=auto;html=1;exitX=0.5;exitY=1;exitDx=0;exitDy=0;entryX=0.574;entryY=0.085;entryDx=0;entryDy=0;entryPerimeter=0;endArrow=none;startFill=0;" parent="1" source="9bLLDBEkSSRMHpIH5o-v-18" target="9bLLDBEkSSRMHpIH5o-v-13" edge="1">
          <mxGeometry relative="1" as="geometry" />
        </mxCell>
        <mxCell id="lxFvvVvMqMI0y28YT8ds-42" value="oceni" style="shape=rhombus;perimeter=rhombusPerimeter;whiteSpace=wrap;html=1;align=center;" parent="1" vertex="1">
          <mxGeometry x="460" y="240" width="120" height="60" as="geometry" />
        </mxCell>
        <mxCell id="lxFvvVvMqMI0y28YT8ds-43" value="" style="endArrow=none;html=1;rounded=0;exitX=0.388;exitY=1.027;exitDx=0;exitDy=0;exitPerimeter=0;entryX=0.689;entryY=0.197;entryDx=0;entryDy=0;entryPerimeter=0;dashed=1;dashPattern=1 2;" parent="1" source="9bLLDBEkSSRMHpIH5o-v-13" target="lxFvvVvMqMI0y28YT8ds-42" edge="1">
          <mxGeometry relative="1" as="geometry">
            <mxPoint x="410" y="260" as="sourcePoint" />
            <mxPoint x="570" y="260" as="targetPoint" />
          </mxGeometry>
        </mxCell>
        <mxCell id="lxFvvVvMqMI0y28YT8ds-44" value="N" style="resizable=0;html=1;whiteSpace=wrap;align=right;verticalAlign=bottom;" parent="lxFvvVvMqMI0y28YT8ds-43" connectable="0" vertex="1">
          <mxGeometry x="1" relative="1" as="geometry">
            <mxPoint x="-3" y="-12" as="offset" />
          </mxGeometry>
        </mxCell>
        <mxCell id="lxFvvVvMqMI0y28YT8ds-45" value="" style="endArrow=none;html=1;rounded=0;dashed=1;dashPattern=1 2;exitX=1;exitY=0.5;exitDx=0;exitDy=0;" parent="1" source="9bLLDBEkSSRMHpIH5o-v-19" target="lxFvvVvMqMI0y28YT8ds-42" edge="1">
          <mxGeometry relative="1" as="geometry">
            <mxPoint x="200" y="359.62" as="sourcePoint" />
            <mxPoint x="360" y="359.62" as="targetPoint" />
          </mxGeometry>
        </mxCell>
        <mxCell id="lxFvvVvMqMI0y28YT8ds-50" value="Pot" style="whiteSpace=wrap;html=1;align=center;" parent="1" vertex="1">
          <mxGeometry x="600" y="320" width="100" height="40" as="geometry" />
        </mxCell>
        <mxCell id="lxFvvVvMqMI0y28YT8ds-60" style="rounded=0;orthogonalLoop=1;jettySize=auto;html=1;endArrow=none;startFill=0;" parent="1" source="lxFvvVvMqMI0y28YT8ds-52" target="lxFvvVvMqMI0y28YT8ds-50" edge="1">
          <mxGeometry relative="1" as="geometry" />
        </mxCell>
        <mxCell id="lxFvvVvMqMI0y28YT8ds-52" value="route_name" style="ellipse;whiteSpace=wrap;html=1;align=center;" parent="1" vertex="1">
          <mxGeometry x="540" y="470" width="100" height="40" as="geometry" />
        </mxCell>
        <mxCell id="lxFvvVvMqMI0y28YT8ds-61" style="rounded=0;orthogonalLoop=1;jettySize=auto;html=1;endArrow=none;startFill=0;" parent="1" source="lxFvvVvMqMI0y28YT8ds-53" target="lxFvvVvMqMI0y28YT8ds-50" edge="1">
          <mxGeometry relative="1" as="geometry" />
        </mxCell>
        <mxCell id="lxFvvVvMqMI0y28YT8ds-53" value="route_time" style="ellipse;whiteSpace=wrap;html=1;align=center;" parent="1" vertex="1">
          <mxGeometry x="610" y="510" width="100" height="40" as="geometry" />
        </mxCell>
        <mxCell id="lxFvvVvMqMI0y28YT8ds-62" style="rounded=0;orthogonalLoop=1;jettySize=auto;html=1;endArrow=none;startFill=0;" parent="1" source="lxFvvVvMqMI0y28YT8ds-54" target="lxFvvVvMqMI0y28YT8ds-50" edge="1">
          <mxGeometry relative="1" as="geometry" />
        </mxCell>
        <mxCell id="lxFvvVvMqMI0y28YT8ds-54" value="route_difficulty" style="ellipse;whiteSpace=wrap;html=1;align=center;" parent="1" vertex="1">
          <mxGeometry x="670" y="480" width="100" height="40" as="geometry" />
        </mxCell>
        <mxCell id="lxFvvVvMqMI0y28YT8ds-64" style="rounded=0;orthogonalLoop=1;jettySize=auto;html=1;endArrow=none;startFill=0;entryX=0;entryY=1;entryDx=0;entryDy=0;" parent="1" source="lxFvvVvMqMI0y28YT8ds-63" target="lxFvvVvMqMI0y28YT8ds-50" edge="1">
          <mxGeometry relative="1" as="geometry" />
        </mxCell>
        <mxCell id="lxFvvVvMqMI0y28YT8ds-63" value="id" style="ellipse;whiteSpace=wrap;html=1;align=center;fontStyle=4;" parent="1" vertex="1">
          <mxGeometry x="470" y="380" width="100" height="40" as="geometry" />
        </mxCell>
        <mxCell id="Qy7Hj7DoJu94713Pi_-V-1" value="uporabnisko_ime" style="ellipse;whiteSpace=wrap;html=1;align=center;" vertex="1" parent="1">
          <mxGeometry y="40" width="100" height="40" as="geometry" />
        </mxCell>
        <mxCell id="Qy7Hj7DoJu94713Pi_-V-2" value="geslo" style="ellipse;whiteSpace=wrap;html=1;align=center;" vertex="1" parent="1">
          <mxGeometry x="70" width="100" height="40" as="geometry" />
        </mxCell>
        <mxCell id="Qy7Hj7DoJu94713Pi_-V-3" value="" style="endArrow=none;html=1;rounded=0;exitX=0.5;exitY=1;exitDx=0;exitDy=0;" edge="1" parent="1" source="Qy7Hj7DoJu94713Pi_-V-2" target="9bLLDBEkSSRMHpIH5o-v-5">
          <mxGeometry relative="1" as="geometry">
            <mxPoint x="280" y="230" as="sourcePoint" />
            <mxPoint x="440" y="230" as="targetPoint" />
          </mxGeometry>
        </mxCell>
        <mxCell id="Qy7Hj7DoJu94713Pi_-V-4" value="" style="endArrow=none;html=1;rounded=0;exitX=1;exitY=1;exitDx=0;exitDy=0;entryX=0.08;entryY=0.05;entryDx=0;entryDy=0;entryPerimeter=0;" edge="1" parent="1" source="Qy7Hj7DoJu94713Pi_-V-1" target="9bLLDBEkSSRMHpIH5o-v-5">
          <mxGeometry relative="1" as="geometry">
            <mxPoint x="120" y="90" as="sourcePoint" />
            <mxPoint x="149" y="140" as="targetPoint" />
          </mxGeometry>
        </mxCell>
        <mxCell id="Qy7Hj7DoJu94713Pi_-V-5" value="Prijava" style="shape=rhombus;perimeter=rhombusPerimeter;whiteSpace=wrap;html=1;align=center;" vertex="1" parent="1">
          <mxGeometry x="110" y="190" width="120" height="60" as="geometry" />
        </mxCell>
        <mxCell id="Qy7Hj7DoJu94713Pi_-V-6" value="" style="endArrow=none;html=1;rounded=0;dashed=1;dashPattern=1 2;exitX=0.4;exitY=1.05;exitDx=0;exitDy=0;exitPerimeter=0;entryX=0.5;entryY=0;entryDx=0;entryDy=0;" edge="1" parent="1" source="9bLLDBEkSSRMHpIH5o-v-5" target="Qy7Hj7DoJu94713Pi_-V-5">
          <mxGeometry relative="1" as="geometry">
            <mxPoint x="280" y="230" as="sourcePoint" />
            <mxPoint x="440" y="230" as="targetPoint" />
          </mxGeometry>
        </mxCell>
        <mxCell id="Qy7Hj7DoJu94713Pi_-V-7" value="N" style="resizable=0;html=1;whiteSpace=wrap;align=right;verticalAlign=bottom;" connectable="0" vertex="1" parent="Qy7Hj7DoJu94713Pi_-V-6">
          <mxGeometry x="1" relative="1" as="geometry" />
        </mxCell>
        <mxCell id="Qy7Hj7DoJu94713Pi_-V-9" value="" style="endArrow=none;html=1;rounded=0;dashed=1;dashPattern=1 2;exitX=0.5;exitY=0;exitDx=0;exitDy=0;entryX=0.5;entryY=1;entryDx=0;entryDy=0;" edge="1" parent="1" source="9bLLDBEkSSRMHpIH5o-v-19" target="Qy7Hj7DoJu94713Pi_-V-5">
          <mxGeometry relative="1" as="geometry">
            <mxPoint x="280" y="230" as="sourcePoint" />
            <mxPoint x="440" y="230" as="targetPoint" />
          </mxGeometry>
        </mxCell>
        <mxCell id="Qy7Hj7DoJu94713Pi_-V-10" value="N" style="resizable=0;html=1;whiteSpace=wrap;align=right;verticalAlign=bottom;" connectable="0" vertex="1" parent="Qy7Hj7DoJu94713Pi_-V-9">
          <mxGeometry x="1" relative="1" as="geometry" />
        </mxCell>
        <mxCell id="Qy7Hj7DoJu94713Pi_-V-11" value="prijava" style="shape=rhombus;perimeter=rhombusPerimeter;whiteSpace=wrap;html=1;align=center;" vertex="1" parent="1">
          <mxGeometry x="330" y="100" width="120" height="60" as="geometry" />
        </mxCell>
        <mxCell id="Qy7Hj7DoJu94713Pi_-V-12" value="" style="endArrow=none;html=1;rounded=0;dashed=1;dashPattern=1 2;exitX=0;exitY=0.5;exitDx=0;exitDy=0;entryX=1;entryY=0.5;entryDx=0;entryDy=0;" edge="1" parent="1" source="9bLLDBEkSSRMHpIH5o-v-13" target="Qy7Hj7DoJu94713Pi_-V-11">
          <mxGeometry relative="1" as="geometry">
            <mxPoint x="530" y="120" as="sourcePoint" />
            <mxPoint x="470" y="175" as="targetPoint" />
          </mxGeometry>
        </mxCell>
        <mxCell id="Qy7Hj7DoJu94713Pi_-V-13" value="N" style="resizable=0;html=1;whiteSpace=wrap;align=right;verticalAlign=bottom;" connectable="0" vertex="1" parent="Qy7Hj7DoJu94713Pi_-V-12">
          <mxGeometry x="1" relative="1" as="geometry" />
        </mxCell>
        <mxCell id="Qy7Hj7DoJu94713Pi_-V-14" value="" style="endArrow=none;html=1;rounded=0;dashed=1;dashPattern=1 2;exitX=1;exitY=0.75;exitDx=0;exitDy=0;entryX=0;entryY=0.5;entryDx=0;entryDy=0;" edge="1" parent="1" source="9bLLDBEkSSRMHpIH5o-v-5" target="Qy7Hj7DoJu94713Pi_-V-11">
          <mxGeometry relative="1" as="geometry">
            <mxPoint x="340" y="120" as="sourcePoint" />
            <mxPoint x="280" y="175" as="targetPoint" />
          </mxGeometry>
        </mxCell>
        <mxCell id="Qy7Hj7DoJu94713Pi_-V-15" value="N" style="resizable=0;html=1;whiteSpace=wrap;align=right;verticalAlign=bottom;" connectable="0" vertex="1" parent="Qy7Hj7DoJu94713Pi_-V-14">
          <mxGeometry x="1" relative="1" as="geometry" />
        </mxCell>
        <mxCell id="Qy7Hj7DoJu94713Pi_-V-18" value="mountain_id" style="ellipse;whiteSpace=wrap;html=1;align=center;" vertex="1" parent="1">
          <mxGeometry x="490" y="430" width="100" height="40" as="geometry" />
        </mxCell>
        <mxCell id="Qy7Hj7DoJu94713Pi_-V-19" style="rounded=0;orthogonalLoop=1;jettySize=auto;html=1;endArrow=none;startFill=0;entryX=0.12;entryY=1.025;entryDx=0;entryDy=0;entryPerimeter=0;" edge="1" parent="1" source="Qy7Hj7DoJu94713Pi_-V-18" target="lxFvvVvMqMI0y28YT8ds-50">
          <mxGeometry relative="1" as="geometry">
            <mxPoint x="500" y="605" as="sourcePoint" />
            <mxPoint x="540" y="530" as="targetPoint" />
          </mxGeometry>
        </mxCell>
        <mxCell id="Qy7Hj7DoJu94713Pi_-V-25" style="rounded=0;orthogonalLoop=1;jettySize=auto;html=1;exitX=0;exitY=0;exitDx=0;exitDy=0;entryX=0.75;entryY=1;entryDx=0;entryDy=0;endArrow=none;startFill=0;" edge="1" parent="1" source="Qy7Hj7DoJu94713Pi_-V-20" target="lxFvvVvMqMI0y28YT8ds-50">
          <mxGeometry relative="1" as="geometry" />
        </mxCell>
        <mxCell id="Qy7Hj7DoJu94713Pi_-V-20" value="start_point" style="ellipse;whiteSpace=wrap;html=1;align=center;" vertex="1" parent="1">
          <mxGeometry x="720" y="440" width="100" height="40" as="geometry" />
        </mxCell>
        <mxCell id="Qy7Hj7DoJu94713Pi_-V-27" style="rounded=0;orthogonalLoop=1;jettySize=auto;html=1;exitX=0;exitY=0.5;exitDx=0;exitDy=0;entryX=1;entryY=0.75;entryDx=0;entryDy=0;endArrow=none;startFill=0;" edge="1" parent="1" source="Qy7Hj7DoJu94713Pi_-V-21" target="lxFvvVvMqMI0y28YT8ds-50">
          <mxGeometry relative="1" as="geometry" />
        </mxCell>
        <mxCell id="Qy7Hj7DoJu94713Pi_-V-21" value="summer_gear" style="ellipse;whiteSpace=wrap;html=1;align=center;" vertex="1" parent="1">
          <mxGeometry x="730" y="340" width="100" height="40" as="geometry" />
        </mxCell>
        <mxCell id="Qy7Hj7DoJu94713Pi_-V-28" style="rounded=0;orthogonalLoop=1;jettySize=auto;html=1;exitX=0;exitY=0.5;exitDx=0;exitDy=0;endArrow=none;startFill=0;entryX=1;entryY=0.5;entryDx=0;entryDy=0;" edge="1" parent="1" source="Qy7Hj7DoJu94713Pi_-V-22" target="lxFvvVvMqMI0y28YT8ds-50">
          <mxGeometry relative="1" as="geometry">
            <mxPoint x="640" y="470" as="targetPoint" />
          </mxGeometry>
        </mxCell>
        <mxCell id="Qy7Hj7DoJu94713Pi_-V-22" value="winter_gear" style="ellipse;whiteSpace=wrap;html=1;align=center;" vertex="1" parent="1">
          <mxGeometry x="720" y="290" width="100" height="40" as="geometry" />
        </mxCell>
        <mxCell id="Qy7Hj7DoJu94713Pi_-V-26" style="rounded=0;orthogonalLoop=1;jettySize=auto;html=1;exitX=0;exitY=0.5;exitDx=0;exitDy=0;entryX=1;entryY=1;entryDx=0;entryDy=0;endArrow=none;startFill=0;" edge="1" parent="1" source="Qy7Hj7DoJu94713Pi_-V-24" target="lxFvvVvMqMI0y28YT8ds-50">
          <mxGeometry relative="1" as="geometry" />
        </mxCell>
        <mxCell id="Qy7Hj7DoJu94713Pi_-V-24" value="height_diff" style="ellipse;whiteSpace=wrap;html=1;align=center;" vertex="1" parent="1">
          <mxGeometry x="740" y="390" width="100" height="40" as="geometry" />
        </mxCell>
        <mxCell id="Qy7Hj7DoJu94713Pi_-V-29" value="se izvaja na" style="shape=rhombus;perimeter=rhombusPerimeter;whiteSpace=wrap;html=1;align=center;" vertex="1" parent="1">
          <mxGeometry x="590" y="230" width="120" height="60" as="geometry" />
        </mxCell>
        <mxCell id="Qy7Hj7DoJu94713Pi_-V-30" value="" style="endArrow=none;html=1;rounded=0;dashed=1;dashPattern=1 2;exitX=0.5;exitY=0;exitDx=0;exitDy=0;entryX=0.5;entryY=1;entryDx=0;entryDy=0;" edge="1" parent="1" source="Qy7Hj7DoJu94713Pi_-V-29" target="9bLLDBEkSSRMHpIH5o-v-13">
          <mxGeometry relative="1" as="geometry">
            <mxPoint x="320" y="330" as="sourcePoint" />
            <mxPoint x="480" y="330" as="targetPoint" />
          </mxGeometry>
        </mxCell>
        <mxCell id="Qy7Hj7DoJu94713Pi_-V-31" value="N" style="resizable=0;html=1;whiteSpace=wrap;align=right;verticalAlign=bottom;" connectable="0" vertex="1" parent="Qy7Hj7DoJu94713Pi_-V-30">
          <mxGeometry x="1" relative="1" as="geometry" />
        </mxCell>
        <mxCell id="Qy7Hj7DoJu94713Pi_-V-32" value="" style="endArrow=none;html=1;rounded=0;dashed=1;dashPattern=1 2;exitX=0.5;exitY=1;exitDx=0;exitDy=0;entryX=0.5;entryY=0;entryDx=0;entryDy=0;" edge="1" parent="1" source="Qy7Hj7DoJu94713Pi_-V-29" target="lxFvvVvMqMI0y28YT8ds-50">
          <mxGeometry relative="1" as="geometry">
            <mxPoint x="660" y="530" as="sourcePoint" />
            <mxPoint x="650" y="380" as="targetPoint" />
          </mxGeometry>
        </mxCell>
        <mxCell id="Qy7Hj7DoJu94713Pi_-V-33" value="N" style="resizable=0;html=1;whiteSpace=wrap;align=right;verticalAlign=bottom;" connectable="0" vertex="1" parent="Qy7Hj7DoJu94713Pi_-V-32">
          <mxGeometry x="1" relative="1" as="geometry" />
        </mxCell>
        <mxCell id="Qy7Hj7DoJu94713Pi_-V-34" value="Gora" style="whiteSpace=wrap;html=1;align=center;" vertex="1" parent="1">
          <mxGeometry x="260" y="450" width="100" height="40" as="geometry" />
        </mxCell>
        <mxCell id="Qy7Hj7DoJu94713Pi_-V-46" value="" style="rounded=0;orthogonalLoop=1;jettySize=auto;html=1;endArrow=none;startFill=0;" edge="1" parent="1" source="Qy7Hj7DoJu94713Pi_-V-35" target="Qy7Hj7DoJu94713Pi_-V-34">
          <mxGeometry relative="1" as="geometry" />
        </mxCell>
        <mxCell id="Qy7Hj7DoJu94713Pi_-V-35" value="mountain_id" style="ellipse;whiteSpace=wrap;html=1;align=center;fontStyle=4;" vertex="1" parent="1">
          <mxGeometry x="150" y="390" width="100" height="40" as="geometry" />
        </mxCell>
        <mxCell id="Qy7Hj7DoJu94713Pi_-V-47" style="rounded=0;orthogonalLoop=1;jettySize=auto;html=1;exitX=1;exitY=0.5;exitDx=0;exitDy=0;entryX=0;entryY=0.75;entryDx=0;entryDy=0;endArrow=none;startFill=0;" edge="1" parent="1" source="Qy7Hj7DoJu94713Pi_-V-36" target="Qy7Hj7DoJu94713Pi_-V-34">
          <mxGeometry relative="1" as="geometry" />
        </mxCell>
        <mxCell id="Qy7Hj7DoJu94713Pi_-V-36" value="name" style="ellipse;whiteSpace=wrap;html=1;align=center;" vertex="1" parent="1">
          <mxGeometry x="120" y="450" width="100" height="40" as="geometry" />
        </mxCell>
        <mxCell id="Qy7Hj7DoJu94713Pi_-V-51" style="rounded=0;orthogonalLoop=1;jettySize=auto;html=1;exitX=0;exitY=0;exitDx=0;exitDy=0;entryX=0.5;entryY=1;entryDx=0;entryDy=0;endArrow=none;startFill=0;" edge="1" parent="1" source="Qy7Hj7DoJu94713Pi_-V-38" target="Qy7Hj7DoJu94713Pi_-V-34">
          <mxGeometry relative="1" as="geometry" />
        </mxCell>
        <mxCell id="Qy7Hj7DoJu94713Pi_-V-38" value="coordinates" style="ellipse;whiteSpace=wrap;html=1;align=center;" vertex="1" parent="1">
          <mxGeometry x="330" y="580" width="100" height="40" as="geometry" />
        </mxCell>
        <mxCell id="Qy7Hj7DoJu94713Pi_-V-50" style="rounded=0;orthogonalLoop=1;jettySize=auto;html=1;exitX=0.5;exitY=0;exitDx=0;exitDy=0;entryX=0.25;entryY=1;entryDx=0;entryDy=0;endArrow=none;startFill=0;" edge="1" parent="1" source="Qy7Hj7DoJu94713Pi_-V-39" target="Qy7Hj7DoJu94713Pi_-V-34">
          <mxGeometry relative="1" as="geometry" />
        </mxCell>
        <mxCell id="Qy7Hj7DoJu94713Pi_-V-39" value="height_m" style="ellipse;whiteSpace=wrap;html=1;align=center;" vertex="1" parent="1">
          <mxGeometry x="230" y="580" width="100" height="40" as="geometry" />
        </mxCell>
        <mxCell id="Qy7Hj7DoJu94713Pi_-V-40" value="mountain_range" style="ellipse;whiteSpace=wrap;html=1;align=center;" vertex="1" parent="1">
          <mxGeometry x="170" y="540" width="100" height="40" as="geometry" />
        </mxCell>
        <mxCell id="Qy7Hj7DoJu94713Pi_-V-48" style="rounded=0;orthogonalLoop=1;jettySize=auto;html=1;exitX=1;exitY=0;exitDx=0;exitDy=0;entryX=0;entryY=1;entryDx=0;entryDy=0;endArrow=none;startFill=0;" edge="1" parent="1" source="Qy7Hj7DoJu94713Pi_-V-41" target="Qy7Hj7DoJu94713Pi_-V-34">
          <mxGeometry relative="1" as="geometry" />
        </mxCell>
        <mxCell id="Qy7Hj7DoJu94713Pi_-V-41" value="country" style="ellipse;whiteSpace=wrap;html=1;align=center;" vertex="1" parent="1">
          <mxGeometry x="110" y="500" width="100" height="40" as="geometry" />
        </mxCell>
        <mxCell id="Qy7Hj7DoJu94713Pi_-V-52" style="rounded=0;orthogonalLoop=1;jettySize=auto;html=1;exitX=0;exitY=0;exitDx=0;exitDy=0;entryX=0.75;entryY=1;entryDx=0;entryDy=0;endArrow=none;startFill=0;" edge="1" parent="1" source="Qy7Hj7DoJu94713Pi_-V-43" target="Qy7Hj7DoJu94713Pi_-V-34">
          <mxGeometry relative="1" as="geometry" />
        </mxCell>
        <mxCell id="Qy7Hj7DoJu94713Pi_-V-43" value="type" style="ellipse;whiteSpace=wrap;html=1;align=center;" vertex="1" parent="1">
          <mxGeometry x="400" y="550" width="100" height="40" as="geometry" />
        </mxCell>
        <mxCell id="Qy7Hj7DoJu94713Pi_-V-53" style="rounded=0;orthogonalLoop=1;jettySize=auto;html=1;exitX=0;exitY=0.5;exitDx=0;exitDy=0;entryX=1;entryY=1;entryDx=0;entryDy=0;endArrow=none;startFill=0;" edge="1" parent="1" source="Qy7Hj7DoJu94713Pi_-V-44" target="Qy7Hj7DoJu94713Pi_-V-34">
          <mxGeometry relative="1" as="geometry" />
        </mxCell>
        <mxCell id="Qy7Hj7DoJu94713Pi_-V-44" value="popularity" style="ellipse;whiteSpace=wrap;html=1;align=center;" vertex="1" parent="1">
          <mxGeometry x="430" y="510" width="100" height="40" as="geometry" />
        </mxCell>
        <mxCell id="Qy7Hj7DoJu94713Pi_-V-54" style="rounded=0;orthogonalLoop=1;jettySize=auto;html=1;exitX=0;exitY=0.5;exitDx=0;exitDy=0;entryX=1;entryY=0.5;entryDx=0;entryDy=0;endArrow=none;startFill=0;" edge="1" parent="1" source="Qy7Hj7DoJu94713Pi_-V-45" target="Qy7Hj7DoJu94713Pi_-V-34">
          <mxGeometry relative="1" as="geometry" />
        </mxCell>
        <mxCell id="Qy7Hj7DoJu94713Pi_-V-45" value="description" style="ellipse;whiteSpace=wrap;html=1;align=center;" vertex="1" parent="1">
          <mxGeometry x="410" y="470" width="100" height="40" as="geometry" />
        </mxCell>
        <mxCell id="Qy7Hj7DoJu94713Pi_-V-49" style="rounded=0;orthogonalLoop=1;jettySize=auto;html=1;exitX=0.5;exitY=0;exitDx=0;exitDy=0;entryX=0.1;entryY=1.075;entryDx=0;entryDy=0;entryPerimeter=0;endArrow=none;startFill=0;" edge="1" parent="1" source="Qy7Hj7DoJu94713Pi_-V-40" target="Qy7Hj7DoJu94713Pi_-V-34">
          <mxGeometry relative="1" as="geometry" />
        </mxCell>
        <mxCell id="Qy7Hj7DoJu94713Pi_-V-55" value="vodi na" style="shape=rhombus;perimeter=rhombusPerimeter;whiteSpace=wrap;html=1;align=center;" vertex="1" parent="1">
          <mxGeometry x="330" y="370" width="120" height="60" as="geometry" />
        </mxCell>
        <mxCell id="Qy7Hj7DoJu94713Pi_-V-56" value="" style="endArrow=none;html=1;rounded=0;exitX=1;exitY=0;exitDx=0;exitDy=0;entryX=0;entryY=0.5;entryDx=0;entryDy=0;dashed=1;dashPattern=1 2;" edge="1" parent="1" source="Qy7Hj7DoJu94713Pi_-V-55" target="lxFvvVvMqMI0y28YT8ds-50">
          <mxGeometry relative="1" as="geometry">
            <mxPoint x="486" y="370" as="sourcePoint" />
            <mxPoint x="440" y="471" as="targetPoint" />
          </mxGeometry>
        </mxCell>
        <mxCell id="Qy7Hj7DoJu94713Pi_-V-57" value="N" style="resizable=0;html=1;whiteSpace=wrap;align=right;verticalAlign=bottom;" connectable="0" vertex="1" parent="Qy7Hj7DoJu94713Pi_-V-56">
          <mxGeometry x="1" relative="1" as="geometry">
            <mxPoint x="-3" y="-12" as="offset" />
          </mxGeometry>
        </mxCell>
        <mxCell id="Qy7Hj7DoJu94713Pi_-V-58" value="" style="endArrow=none;html=1;rounded=0;exitX=0;exitY=1;exitDx=0;exitDy=0;entryX=0.5;entryY=0;entryDx=0;entryDy=0;dashed=1;dashPattern=1 2;" edge="1" parent="1" source="Qy7Hj7DoJu94713Pi_-V-55" target="Qy7Hj7DoJu94713Pi_-V-34">
          <mxGeometry relative="1" as="geometry">
            <mxPoint x="356" y="420" as="sourcePoint" />
            <mxPoint x="310" y="521" as="targetPoint" />
          </mxGeometry>
        </mxCell>
        <mxCell id="Qy7Hj7DoJu94713Pi_-V-59" value="N" style="resizable=0;html=1;whiteSpace=wrap;align=right;verticalAlign=bottom;" connectable="0" vertex="1" parent="Qy7Hj7DoJu94713Pi_-V-58">
          <mxGeometry x="1" relative="1" as="geometry">
            <mxPoint x="-3" y="-12" as="offset" />
          </mxGeometry>
        </mxCell>
      </root>
    </mxGraphModel>
  </diagram>
</mxfile>
